<svg fill="none" height="89" viewBox="0 0 121 89" width="121" xmlns="http://www.w3.org/2000/svg"><path d="m76.6381 71.797 3.9463-17.8641h.1205l4.1874 17.8641zm-1.1448-25.8473-11.4475 41.3617h8.5254l2.3497-9.158h11.809l2.2895 9.158h9.0978l-11.2366-41.3617zm-28.679 5.6937c.3615-.0603.6929-.0904 1.0243-.0904 3.9765 0 5.2718 4.5188 6.8383 14.1889 1.687 10.4534 1.8075 15.0926-2.9823 15.8759-.3615.0602-.6929.0903-1.0243.0903-4.0066 0-5.2719-4.5187-6.8384-14.1888-1.7171-10.4534-1.8376-15.0927 2.9824-15.8759zm-11.6584 17.2616c1.5665 9.6701 3.1029 19.1294 13.8274 19.1294 1.1146 0 2.3498-.0904 3.6753-.3314 14.0985-2.2895 12.4115-12.6826 10.6642-23.377-1.5966-9.7605-3.1029-19.1294-13.8274-19.1294-1.1146 0-2.3497.0904-3.7053.3314-14.0684 2.2895-12.3814 12.5923-10.6342 23.377zm-15.5445-39.2228c0 5.784-4.1271 5.8443-5.9647 5.8443h-4.82001v-11.7488h5.03091c4.3681 0 5.7538 2.2594 5.7538 5.9045zm-.4518-17.5327c0 4.0066-2.651 5.2719-4.5188 5.2719h-5.78399v-10.54378h5.33209c2.892 0 4.9707 2.25937 4.9707 5.27188zm1.3857 8.3145v-.1205c4.6995-.9038 7.0493-4.3681 7.0493-9.0978 0-8.82658-5.4527-10.72446-12.0199-10.72446h-15.363762v41.36166h15.303462c3.6753 0 12.773-.4519 12.773-10.9354-.0301-5.6635-1.6267-9.6099-7.7421-10.4835zm3.4644 54.6468c0 5.784-4.1271 5.8442-5.9648 5.8442h-4.82v-11.7487h5.0309c4.3681 0 5.7539 2.2292 5.7539 5.9045zm-.4519-17.5328c0 4.0066-2.6209 5.2719-4.5187 5.2719h-5.784v-10.5438h5.3321c2.892 0 4.9706 2.2293 4.9706 5.2719zm8.4049-.9037c0-8.8267-5.4526-10.7246-12.0199-10.7246h-15.36374v41.3617h15.30354c3.6752 0 12.773-.4519 12.773-10.9354 0-5.6635-1.5967-9.64-7.7422-10.4835v-.1205c4.6995-.9037 7.0493-4.338 7.0493-9.0977zm-.723-14.7914h21.5996v-6.8685h-12.9537v-34.49316h-8.6459zm52.2367-12.0199v-29.34176h-8.6458v28.76936c0 4.579-1.7172 7.1095-5.5129 7.1095-3.1631 0-5.3321-2.0184-5.3321-7.1095v-28.76936h-8.6459v29.34176c0 7.8024 4.579 12.7128 14.0985 12.7128 10.5437 0 14.0382-6.5372 14.0382-12.7128zm3.1933 12.0199h23.0453v-6.3564h-14.3693v-12.0801h12.8333v-6.3564h-12.8333v-10.21238h13.9173v-6.35638h-22.5933zm33.3783 10.9354v-6.8686h-27.8956v6.8686h9.6396v34.4931h8.646v-34.4931z" fill="#00b2ba"/></svg>