<svg fill="none" height="20" viewBox="0 0 265 20" width="265" xmlns="http://www.w3.org/2000/svg"><path d="m0 15.5555c2 0 2.44439-.6666 2.44439-1.5555v-11.77778c0-.88889-.44439-1.555587-2.44439-1.555587v-.222236h6.66667c4.44443 0 5.99993 1.777803 5.99993 3.777803 0 1.55556-1.1111 3.33335-4.22218 3.55557 3.33328.22222 4.88888 1.55552 4.88888 3.77773 0 2.2222-1.5556 4.4445-6.44447 4.4445h-6.88883zm6.88883-7.99997c2.44445 0 3.33337-1.11111 3.33337-3.33333 0-2-.66665-3.333331-3.55553-3.333331h-2.22223v6.666661zm.44448 7.77777c2.88889 0 3.77779-1.1111 3.77779-4 0-1.99996-1.11114-3.55553-4.00003-3.55553h-2.22222v7.55553z" fill="#74767f"/><path d="m14.8892 15.5556c1.3334 0 1.5556-.2223 1.5556-.8889v-13.33335c0-.888892-.2223-1.111114-1.7778-1.111114v-.222236h3.7778v14.6667c0 .6666.2222.8889 1.5556.8889v.2222h-5.1112z" fill="#74767f"/><path d="m22.2216 13.1111v-6.00005c0-.66667-.4445-1.11111-1.5556-1.11111v-.22217h3.5556v6.66663c0 1.7778.4444 2.6667 2 2.6667 1.1111 0 2-.8889 2.6667-2.2223v-5.77775c0-.66667-.4445-1.11111-1.5556-1.11111v-.22217h3.5556v9.11103c0 .4445.2221.889 1.5555.889v.2221h-3.3334v-2.4444c-1.1111 1.7778-2.2221 2.4444-3.7777 2.4444-2 0-3.1111-.8888-3.1111-2.8888z" fill="#74767f"/><path d="m33.1113 10.8889c0-3.11115 2.2222-5.33336 4.8889-5.33336 2.8889 0 4.4445 2 4.2223 4.44445h-6.8889v.66661c0 2.4445 1.1111 4.4445 3.5555 4.4445 1.3334 0 2.2222-.6667 3.1111-2l.2223.2222c-.8889 1.3334-2.0001 2.6666-4.2223 2.6666-2.8889 0-4.8889-2.2221-4.8889-5.111zm2.2223-1.11115h4.8888c.2222-2.44444-.4444-3.7778-2.2222-3.7778-1.5556 0-2.4444 1.11113-2.6666 3.7778z" fill="#74767f"/><path d="m44.4448 14.2222v-12.66669c0-.888891-.2223-1.111113-1.7778-1.111113v-.222168h3.7778v7.111071c.8889-.88889 2-1.55552 3.3333-1.55552 2.4445 0 4 1.99996 4 4.88882 0 2.8889-1.7778 5.5556-4.6667 5.5556-1.1111 0-2.2221-.2222-3.5555-1.1111l-.8889 1.1111h-.2222zm7.3333-3.5556c0-2.44441-1.1111-4.22218-2.8888-4.22218-.8889 0-1.7778.44446-2.4445 1.33335v6.22223c.4444 1.3333 1.5555 2 2.6666 2 1.7778-.4445 2.6667-2.4445 2.6667-5.3334z" fill="#74767f"/><path d="m55.333 10.8889c0-3.11115 2.4444-5.33336 5.1111-5.33336s5.1111 2.2222 5.1111 5.11106c0 3.1111-2.4444 5.3333-5.1111 5.3333s-5.1111-1.9999-5.1111-5.111zm8-.2223c0-3.55553-1.1111-4.88882-2.8889-4.88882s-2.8889 1.11107-2.8889 4.88882c0 3.7778 1.1111 4.8889 2.8889 4.8889s2.8889-1.1111 2.8889-4.8889z" fill="#74767f"/><path d="m67.333 13.7777c0-.8889.4445-1.7778 1.3334-2.2222 1.7777-.8889 4.2222-1.1111 4.6666-1.55551v-1.33335c0-1.77778-.4445-2.66669-2-2.66669-.8889 0-1.5556.22226-2 .6667.2222.44445.6667.66667.6667 1.11111 0 .66667-.4444 1.11112-1.1111 1.11112s-1.1111-.44445-1.1111-1.11112c0-1.33333 1.7777-2.22222 3.7777-2.22222 2.2222 0 3.5556.88888 3.5556 3.1111v5.33336c0 1.1111.4444 1.5555 1.7777 1.1111v.2222c-.6666.4445-1.3333.6666-1.9999.6666-1.1112 0-1.5556-.4444-1.5556-1.7777-.8889.8889-2 1.7777-3.3333 1.7777-2 0-2.6667-1.1111-2.6667-2.2222zm5.7778 0v-3.3333c-3.3333.6667-4 1.3334-4 2.8889 0 1.1111.4444 1.7778 1.7778 1.7778 1.1111 0 1.7778-.6667 2.2222-1.3334z" fill="#74767f"/><path d="m78.8887 13.3333v-6.88886h-2v-.22223l2-.4444v-2.88893l1.7778-.88888v3.77781h3.1111v.66663h-3.1111v7.11116c0 1.3333.4444 1.7777 1.3333 1.7777.6667 0 1.3333-.4444 2-1.5555l.2222.2222c-.6666 1.3333-1.7778 2.2222-2.8889 2.2222-1.7778 0-2.4444-1.1111-2.4444-2.8889z" fill="#74767f"/><path d="m85.333 14.8889c0-.6667.6667-1.3333 1.3334-1.3333.6666 0 1.3332.6666 1.3332 1.3333 0 .6666-.6666 1.3333-1.3332 1.3333-.6667 0-1.3334-.6667-1.3334-1.3333z" fill="#74767f"/><g fill="#00b2ba"><path d="m94 15.5555c2 0 2.4445-.6666 2.4445-1.5555v-11.77778c0-.88889-.4445-1.555587-2.4445-1.555587v-.222236h6.667c4.444 0 6 1.777803 6 3.777803 0 1.55556-1.111 3.33335-4.223 3.55557 3.334.22222 4.889 1.55552 4.889 3.77773 0 2.2222-1.555 4.4445-6.444 4.4445h-6.889zm6.667-7.99997c2.444 0 3.333-1.11111 3.333-3.33333 0-2-.667-3.333331-3.556-3.333331h-2.2218v6.666661zm.444 7.77777c2.889 0 3.778-1.1111 3.778-4 0-1.99996-1.111-3.55553-4-3.55553h-2.2223v7.55553z"/><path d="m108.445 15.5555c1.333 0 1.555-.2222 1.555-.8888v-7.55564c0-.66667-.222-1.11111-1.555-1.11111v-.22217h3.333v2.22222c.889-1.55556 1.778-2.44446 2.889-2.44446s1.556.66663 1.556 1.55552c0 .66666-.445 1.11111-1.111 1.11111-.667 0-1.112-.44445-1.112-1.11111 0-.22223 0-.44442 0-.66664-.888.22222-1.555.88887-2.222 1.99998v6.2223c0 .6666.445.8888 1.778.8888v.2223h-5.333v-.2223z"/><path d="m117.333 15.5555c1.333 0 1.556-.2222 1.556-.8888v-7.55565c0-.66667-.223-1.11111-1.556-1.11111v-.22217h3.556v9.11103c0 .6667.222.889 1.777.889v.2221h-5.111v-.4444zm1.111-13.3333c0-.66666.445-1.333345 1.111-1.333345.667 0 1.111.444455 1.111 1.333345s-.444 1.33335-1.111 1.33335c-.666 0-1.111-.44446-1.111-1.33335z"/><path d="m123.334 15.5556c1.333 0 1.555-.2223 1.555-.8889v-13.33335c0-.888892-.222-1.111114-1.778-1.111114v-.222236h3.778v14.6667c0 .6666.222.8889 1.556.8889v.2222h-5.111z"/><path d="m129.777 15.5556c1.333 0 1.555-.2223 1.555-.8889v-13.33335c0-.888892-.222-1.111114-1.777-1.111114v-.222236h3.777v14.6667c0 .6666.223.8889 1.556.8889v.2222h-5.111z"/><path d="m136 15.5555c1.333 0 1.556-.2222 1.556-.8888v-7.55565c0-.66667-.223-1.11111-1.556-1.11111v-.22217h3.556v9.11103c0 .6667.222.889 1.777.889v.2221h-5.111v-.4444zm1.111-13.3333c0-.66666.445-1.333345 1.111-1.333345.667 0 1.111.444455 1.111 1.333345s-.444 1.33335-1.111 1.33335c-.666 0-1.111-.44446-1.111-1.33335z"/><path d="m142.444 13.7777c0-.8889.445-1.7778 1.334-2.2222 1.777-.8889 4.222-1.1111 4.666-1.55551v-1.33335c0-1.77778-.444-2.66669-2-2.66669-.889 0-1.555.22226-2 .6667.223.44445.667.66667.667 1.11111 0 .66667-.444 1.11112-1.111 1.11112s-1.111-.44445-1.111-1.11112c0-1.33333 1.778-2.22222 3.778-2.22222 2.222 0 3.555.88888 3.555 3.1111v5.33336c0 1.1111.445 1.5555 1.778 1.1111v.2222c-.667.4445-1.333.6666-2 .6666-1.111 0-1.556-.4444-1.556-1.7777-.889.8889-2 1.7777-3.333 1.7777-1.778 0-2.667-1.1111-2.667-2.2222zm6 0v-3.3333c-3.333.6667-4 1.3334-4 2.8889 0 1.1111.445 1.7778 1.778 1.7778.889 0 1.778-.6667 2.222-1.3334z"/><path d="m152.444 15.5555c1.334 0 1.556-.2222 1.556-.8888v-7.55564c0-.66667-.222-1.11111-1.556-1.11111v-.22217h3.334v2.44439c1.111-1.77778 2.222-2.66663 3.778-2.66663 1.555 0 2.666 1.11109 2.666 2.88886v6.2223c0 .6666.222.8888 1.556.8888v.2223h-4.889v-.2223c1.111 0 1.333-.2222 1.333-.8888v-5.55559c0-1.77778-.444-2.66669-2-2.66669-1.111 0-2 .88889-2.666 2.22222v6.00006c0 .6666.222.8888 1.333.8888v.2223h-4.889v-.2223z"/><path d="m166.444 13.3333v-6.88886h-2v-.22223l2-.4444v-2.88893l1.778-.88888v3.77781h3.111v.66663h-3.111v7.11116c0 1.3333.445 1.7777 1.333 1.7777.667 0 1.334-.4444 2-1.5555l.223.2222c-.667 1.3333-1.778 2.2222-2.889 2.2222-1.778 0-2.445-1.1111-2.445-2.8889z"/><path d="m179.555 15.5555c2 0 2.667-.6666 2.667-1.5555v-13.111131h-1.111c-1.556 0-3.111 1.333321-4.444 4.222211h-.223l.223-4.666683h13.333l.222 4.666683h-.222c-1.333-2.66667-2.667-4.222211-4.445-4.222211h-1.111v13.111131c0 .8889.667 1.5555 2.667 1.5555v.2223h-7.556z"/><path d="m191.111 15.5556c1.333 0 1.555-.2223 1.555-.8889v-13.33335c0-.888892-.222-1.111114-1.777-1.111114v-.222236h3.777v8.22218c1.112-1.77778 2.223-2.66662 3.778-2.66662 1.556 0 2.667 1.11108 2.667 2.88886v6.22228c0 .6666.222.8889 1.555.8889v.2222h-4.888v-.2222c1.111 0 1.333-.2223 1.333-.8889v-5.55558c0-1.77777-.445-2.66669-2-2.66669-1.111 0-2 .88889-2.667 2.22222v6.00005c0 .6666.222.8889 1.334.8889v.2222h-4.889v-.2222z"/><path d="m203.333 15.5555c1.333 0 1.556-.2222 1.556-.8888v-7.55565c0-.66667-.445-1.11111-1.556-1.11111v-.22217h3.556v9.11103c0 .6667.222.889 1.777.889v.2221h-5.111v-.4444zm1.333-13.3333c0-.66666.445-1.333345 1.111-1.333345.667 0 1.112.444455 1.112 1.333345s-.445 1.33335-1.112 1.33335c-.666 0-1.111-.44446-1.111-1.33335z"/><path d="m209.555 15.5555c1.333 0 1.555-.2222 1.555-.8888v-7.55564c0-.66667-.444-1.11111-1.555-1.11111v-.22217h3.333v2.44439c1.111-1.77778 2.222-2.66663 3.778-2.66663 1.555 0 2.666 1.11109 2.666 2.88886v6.2223c0 .6666.223.8888 1.556.8888v.2223h-4.667v-.2223c1.111 0 1.334-.2222 1.334-.8888v-5.55559c0-1.77778-.445-2.66669-2-2.66669-1.111 0-2 .88889-2.667 2.22222v6.00006c0 .6666.222.8888 1.333.8888v.2223h-4.666z"/><path d="m224.889 14.6667c0 .6666.222.8889 1.111.8889v.2222h-4.667v-.2222c1.334 0 1.556-.2223 1.556-.8889v-13.33335c0-.888892-.222-1.111114-1.778-1.111114v-.222236h3.778v11.3333l3.333-3.55552c.889-.88889.889-1.5556-.666-1.77782v-.22217h4.444v.22217c-1.111.22222-1.778.66672-3.111 2.00005l-1.555 1.55552 3.111 4.44447c1.111 1.3333 1.333 1.5556 2.222 1.7778v.2222h-4.889v-.2222c1.333-.2222 1.333-.6667.667-1.3334l-2.667-3.5555-1.111 1.1111v2.6667z"/><path d="m233.111 15.5555c1.334 0 1.556-.2222 1.556-.8888v-7.55565c0-.66667-.445-1.11111-1.556-1.11111v-.22217h3.556v9.11103c0 .6667.222.889 1.778.889v.2221h-5.111v-.4444zm1.111-13.3333c0-.66666.445-1.333345 1.112-1.333345.666 0 1.111.444455 1.111 1.333345s-.445 1.33335-1.111 1.33335c-.667 0-1.112-.44446-1.112-1.33335z"/><path d="m239.11 15.5555c1.334 0 1.556-.2222 1.556-.8888v-7.55564c0-.66667-.444-1.11111-1.556-1.11111v-.22217h3.334v2.44439c1.111-1.77778 2.222-2.66663 3.778-2.66663 1.555 0 2.666 1.11109 2.666 2.88886v6.2223c0 .6666.222.8888 1.556.8888v.2223h-4.889v-.2223c1.111 0 1.333-.2222 1.333-.8888v-5.55559c0-1.77778-.444-2.66669-2-2.66669-1.111 0-2 .88889-2.666 2.22222v6.00006c0 .6666.222.8888 1.333.8888v.2223h-4.889v-.2223z"/><path d="m258 5.99998c.444-.88889 1.111-1.77775 2-1.77775.666 0 1.111.44444 1.111 1.11111 0 .44444-.445.88888-.889.88888s-.889-.44445-.889-1.11112c-.444 0-.889.44444-1.111.88888.889.44444 1.556 1.33336 1.556 2.66669 0 2.22223-2 3.33333-4 3.33333-.445 0-.889 0-1.556-.2222-.889.2222-1.333.6666-1.333 1.1111 0 .4444.222.8889 2.222.8889h1.333c2.889 0 4.222.6667 4.222 2.6667 0 1.7777-1.777 3.5555-5.333 3.5555-2.667 0-4.444-.8889-4.444-2.2222 0-1.1111 1.111-2 2.666-2.2222-1.333-.4445-2-.889-2-1.7778 0-.6667.667-1.3334 1.778-2-1.111-.4445-2-1.5556-2-2.88889 0-2.22222 2-3.33333 4-3.33333 1.333 0 2 .22218 2.667.4444zm1.778 11.55562c0-.8889-.889-1.5556-3.112-1.5556h-1.777c-1.334.2222-2 .8889-2 1.7778 0 1.1111.889 2.2222 3.333 2.2222 2 0 3.556-1.1111 3.556-2.4444zm-1.778-8.66669c0-1.77778-.667-3.1111-2-3.1111-1.334 0-2 .88888-2 3.1111 0 1.99999.666 3.11109 2 3.11109 1.333 0 2-.8889 2-3.11109z"/><path d="m262.223 14.8889c0-.6667.666-1.3333 1.333-1.3333s1.333.6666 1.333 1.3333c0 .6666-.666 1.3333-1.333 1.3333-.889 0-1.333-.6667-1.333-1.3333z"/></g></svg>