<svg fill="none" height="25" viewBox="0 0 26 25" width="26" xmlns="http://www.w3.org/2000/svg"><path d="m23.1539 0h-21.30778c-1.017024 0-1.84612.806987-1.84612 1.8019v21.3962c0 .9949.829096 1.8019 1.84612 1.8019h21.31328c1.017 0 1.8517-.807 1.8517-1.8019v-21.3962c-.0056-.994913-.8347-1.8019-1.8572-1.8019zm-15.73626 21.3078h-3.70882v-11.93349h3.71435v11.93349zm-1.85164-13.56405c-1.1939 0-2.15013-.96175-2.15013-2.15012s.96176-2.15012 2.15013-2.15012 2.15012.96175 2.15012 2.15012c-.00553 1.18837-.96728 2.15012-2.15012 2.15012zm15.7418 13.56405h-3.7089v-5.8037c0-1.3818-.0221-3.1616-1.929-3.1616-1.929 0-2.222 1.5089-2.222 3.0676v5.9032h-3.70326v-11.93899h3.55406v1.63059h.0497c.492-.9397 1.7025-1.92907 3.5099-1.92907 3.753 0 4.4495 2.47067 4.4495 5.68207z" fill="#00b2ba"/></svg>