<svg fill="none" height="25" viewBox="0 0 26 25" width="26" xmlns="http://www.w3.org/2000/svg"><g fill="#00b2ba"><path d="m12.4975 2.25243c3.339 0 3.7309.01488 5.0506.07442 1.2205.05457 1.8804.25799 2.3219.43163.5855.22822 1.0022.49613 1.4388.93273.4366.43659.7095.85334.9327 1.43878.1687.44155.3771 1.1014.4317 2.32189.0595 1.3197.0744 1.71164.0744 5.05062 0 3.3389-.0149 3.7309-.0744 5.0506-.0546 1.2205-.258 1.8803-.4317 2.3219-.2282.5854-.4961 1.0022-.9327 1.4388-.4366.4365-.8533.7094-1.4388.9327-.4415.1687-1.1014.377-2.3219.4316-1.3197.0595-1.7116.0744-5.0506.0744-3.33894 0-3.73088-.0149-5.05059-.0744-1.22048-.0546-1.88033-.258-2.32188-.4316-.58544-.2282-1.00219-.4962-1.43878-.9327-.4366-.4366-.70947-.8534-.93273-1.4388-.16868-.4416-.37706-1.1014-.43163-2.3219-.05954-1.3197-.07442-1.7117-.07442-5.0506 0-3.33898.01488-3.73092.07442-5.05062.05457-1.22049.25799-1.88034.43163-2.32189.22822-.58544.49613-1.00219.93273-1.43878.43659-.4366.85334-.70947 1.43878-.93273.44155-.16868 1.1014-.37706 2.32188-.43163 1.31971-.0645 1.71165-.07442 5.05059-.07442zm0-2.25243c-3.39351 0-3.82018.0148839-5.15477.0744195-1.32963.0595355-2.23755.2728715-3.03136.5804725-.82357.317523-1.51816.749158-2.21274 1.443738s-1.121253 1.39413-1.443738 2.21274c-.307601.79381-.520937 1.70173-.5804725 3.03632-.0595356 1.32963-.0744195 1.7563-.0744195 5.14981 0 3.3935.0148839 3.8202.0744195 5.1548.0595355 1.3296.2728715 2.2376.5804725 3.0363.317523.8236.749158 1.5182 1.443738 2.2128s1.39413 1.1212 2.21274 1.4437c.79381.3076 1.70173.5209 3.03632.5805 1.33459.0595 1.7563.0744 5.15481.0744 3.3985 0 3.8202-.0149 5.1548-.0744 1.3296-.0596 2.2375-.2729 3.0363-.5805.8236-.3175 1.5182-.7491 2.2127-1.4437.6946-.6946 1.1213-1.3942 1.4438-2.2128.3076-.7938.5209-1.7017.5804-3.0363.0596-1.3346.0745-1.7563.0745-5.1548 0-3.39847-.0149-3.82018-.0745-5.15477-.0595-1.32963-.2728-2.23755-.5804-3.03632-.3176-.82358-.7492-1.51816-1.4438-2.21274-.6945-.69458-1.3941-1.121255-2.2127-1.443739-.7938-.307601-1.7017-.520937-3.0363-.5804728-1.3396-.0545743-1.7662-.0694582-5.1598-.0694582z"/><path d="m12.4971 6.07764c-3.5424 0-6.41995 2.87259-6.41995 6.41996 0 3.5473 2.87755 6.4199 6.41995 6.4199 3.5423 0 6.4199-2.8776 6.4199-6.4199 0-3.54241-2.8776-6.41996-6.4199-6.41996zm0 10.58746c-2.3021 0-4.16752-1.8655-4.16752-4.1675 0-2.3021 1.86542-4.16753 4.16752-4.16753 2.302 0 4.1675 1.86543 4.1675 4.16753 0 2.302-1.8655 4.1675-4.1675 4.1675z"/><path d="m19.1702 7.3228c.8275 0 1.4983-.67082 1.4983-1.49832 0-.82749-.6708-1.49831-1.4983-1.49831s-1.4983.67082-1.4983 1.49831c0 .8275.6708 1.49832 1.4983 1.49832z"/></g></svg>