<svg fill="none" height="25" viewBox="0 0 25 25" width="25" xmlns="http://www.w3.org/2000/svg"><path d="m12.5 0c-6.91458 0-12.5 5.60036-12.5 12.5 0 6.9146 5.60036 12.5 12.5 12.5 6.9146 0 12.5-5.6004 12.5-12.5 0-6.89964-5.6004-12.5-12.5-12.5zm5.7348 18.0406c-.224.3734-.7019.4779-1.0753.2539-2.9421-1.7921-6.6308-2.1953-10.99164-1.2097-.41816.0896-.83632-.1643-.92592-.5824-.08961-.4182.16427-.8363.58243-.9259 4.76403-1.0902 8.85603-.6273 12.14163 1.3889.3733.224.4928.7019.2688 1.0752zm1.5233-3.405c-.2838.463-.8812.5974-1.3441.3286-3.3602-2.061-8.4827-2.6583-12.45522-1.4636-.5227.1493-1.06033-.1344-1.20968-.6422-.14934-.5227.13441-1.0603.65711-1.2097 4.54003-1.3739 10.18519-.7168 14.05319 1.6578.448.2688.5824.8661.2987 1.3291zm.1344-3.5544c-4.0323-2.38944-10.67804-2.61346-14.53109-1.44858-.61231.19414-1.26941-.16428-1.46356-.77659-.19415-.6123.16428-1.26941.77658-1.46356 4.42055-1.34408 11.76827-1.07527 16.39787 1.67264.5525.32856.7318 1.04539.4032 1.59799-.2987.5675-1.0305.7467-1.583.4181z" fill="#000"/></svg>