<?xml version="1.0" standalone="no"?>
<!DOCTYPE svg PUBLIC "-//W3C//DTD SVG 20010904//EN"
 "http://www.w3.org/TR/2001/REC-SVG-20010904/DTD/svg10.dtd">
<svg version="1.0" xmlns="http://www.w3.org/2000/svg"
 width="500.000000pt" height="500.000000pt" viewBox="0 0 500.000000 500.000000"
 preserveAspectRatio="xMidYMid meet">
<metadata>
Created by potrace 1.14, written by Peter Selinger 2001-2017
</metadata>
<g transform="translate(0.000000,500.000000) scale(0.100000,-0.100000)"
fill="#000000" stroke="none">
<path d="M90 3435 l0 -835 378 3 c346 4 397 6 457 24 52 15 134 60 171 95 84
79 123 194 118 348 -3 103 -8 134 -34 203 -35 92 -115 157 -224 182 l-49 11
60 22 c83 30 145 88 184 170 28 58 33 79 35 162 7 203 -57 334 -196 398 -98
46 -149 51 -537 52 l-363 0 0 -835z m650 555 c140 -71 146 -309 10 -377 -39
-21 -59 -23 -180 -23 l-135 0 0 205 c0 143 4 208 12 213 6 4 66 6 133 4 98 -2
129 -6 160 -22z m1 -675 c90 -32 123 -90 123 -220 0 -108 -22 -160 -84 -201
-45 -30 -144 -42 -270 -34 l-75 5 1 225 c1 124 2 228 3 233 2 14 256 8 302 -8z"/>
<path d="M1338 4263 c-2 -5 -3 -379 -3 -833 l1 -825 436 -2 437 -2 -1 139 0
140 -261 2 -261 3 0 693 0 692 -172 0 c-95 0 -174 -3 -176 -7z"/>
<path d="M2306 3636 c1 -349 5 -647 9 -663 4 -15 9 -39 12 -53 7 -40 60 -142
90 -176 77 -86 180 -138 320 -159 79 -12 230 -12 283 0 14 3 39 8 55 11 57 10
170 72 221 122 58 57 98 122 119 196 27 99 27 70 26 844 l-1 512 -175 0 -174
0 -3 -642 -3 -643 -28 -51 c-47 -84 -105 -114 -207 -107 -108 7 -174 84 -188
219 -4 38 -7 329 -7 647 l0 577 -175 0 -175 0 1 -634z"/>
<path d="M3570 3435 l0 -835 464 1 464 0 -2 127 -1 127 -288 1 -289 2 0 213
c1 118 1 228 1 244 l1 31 243 -1 c133 0 249 1 257 3 13 3 16 23 15 123 0 79
-4 122 -12 127 -6 4 -122 7 -257 6 l-246 -1 -1 43 c0 24 -1 116 -2 204 l-2
160 40 1 c22 0 149 1 283 1 l242 0 -1 129 0 129 -455 0 -454 0 0 -835z"/>
<path d="M1925 2454 c-103 -18 -153 -32 -222 -66 -122 -58 -196 -147 -232
-278 -18 -65 -21 -96 -17 -230 2 -85 6 -164 9 -175 3 -11 8 -40 11 -65 3 -25
8 -55 10 -66 2 -12 7 -39 10 -60 43 -276 78 -411 138 -526 107 -207 287 -280
577 -233 308 50 460 215 464 503 1 85 -9 242 -18 272 -2 8 -6 33 -9 55 -6 54
-14 104 -31 200 -8 44 -17 94 -20 111 -22 136 -81 301 -138 383 -108 159 -288
218 -532 175z m179 -277 c65 -50 119 -202 160 -447 9 -52 18 -104 20 -115 2
-11 7 -42 10 -70 4 -27 9 -63 12 -80 10 -70 14 -125 14 -209 1 -155 -37 -223
-140 -249 -122 -32 -192 16 -248 165 -20 54 -46 152 -57 221 -3 17 -8 39 -10
47 -2 8 -6 31 -9 50 -3 19 -8 46 -10 59 -3 13 -8 49 -12 80 -3 31 -8 58 -9 61
-8 14 -19 167 -19 260 -1 118 11 164 53 206 61 61 179 71 245 21z"/>
<path d="M266 2432 c-2 -4 -3 -379 -3 -835 l0 -827 366 0 c384 1 439 6 538 50
150 66 225 200 225 399 0 233 -72 352 -243 400 l-62 17 60 22 c149 54 227 194
217 387 -8 166 -75 285 -193 341 -91 43 -122 46 -518 50 -211 1 -384 0 -387
-4z m639 -267 c17 -6 44 -27 62 -45 91 -94 71 -279 -36 -339 -39 -21 -56 -24
-179 -25 l-137 -1 -3 213 -2 213 133 -2 c81 0 144 -6 162 -14z m40 -693 c52
-30 76 -63 90 -126 33 -146 -22 -278 -126 -306 -23 -6 -98 -12 -168 -13 l-126
-2 -3 239 -3 238 148 -4 c132 -3 152 -6 188 -26z"/>
<path d="M3115 2426 c-5 -13 -48 -167 -69 -247 -8 -30 -89 -324 -181 -654 -91
-330 -168 -607 -170 -615 -2 -8 -11 -40 -19 -70 -9 -30 -16 -58 -16 -62 0 -5
76 -8 170 -8 l169 0 12 43 c6 23 28 105 48 182 l36 140 239 0 c205 0 239 -2
242 -15 1 -8 12 -53 24 -100 12 -47 30 -122 41 -168 l21 -82 185 0 c171 0 184
1 179 18 -35 125 -69 249 -72 270 -3 14 -7 28 -9 31 -2 4 -37 132 -79 286 -41
154 -82 307 -92 340 -9 33 -22 83 -29 110 -7 28 -42 158 -78 290 -36 132 -70
259 -76 281 l-11 42 -231 0 c-162 0 -232 -4 -234 -12z m243 -436 c12 -52 44
-192 72 -310 28 -118 54 -231 57 -250 l5 -35 -158 0 c-97 1 -159 5 -161 11 -3
8 54 274 142 664 2 8 4 22 5 30 2 30 17 -13 38 -110z"/>
<path d="M3790 2299 l0 -139 194 0 194 0 -2 -695 -1 -695 175 2 175 3 1 690 1
690 192 3 192 2 -3 138 -3 137 -557 1 -558 2 0 -139z"/>
</g>
</svg>
