<?xml version="1.0" standalone="no"?>
<!DOCTYPE svg PUBLIC "-//W3C//DTD SVG 20010904//EN"
 "http://www.w3.org/TR/2001/REC-SVG-20010904/DTD/svg10.dtd">
<svg version="1.0" xmlns="http://www.w3.org/2000/svg"
 width="1024.000000pt" height="1024.000000pt" viewBox="0 0 1024.000000 1024.000000"
 preserveAspectRatio="xMidYMid meet">
<metadata>
Created by potrace 1.14, written by Peter Selinger 2001-2017
</metadata>
<g transform="translate(0.000000,1024.000000) scale(0.100000,-0.100000)"
fill="#000000" stroke="none">
<path d="M2 7184 l3 -1768 685 1 c791 0 860 3 1029 43 346 82 562 279 641 585
27 104 34 171 34 330 0 168 -8 239 -38 356 -30 114 -38 135 -89 216 -91 147
-281 264 -468 289 -48 6 -76 23 -45 25 19 2 21 2 66 16 238 73 398 226 474
453 34 105 37 127 41 290 9 473 -163 752 -537 869 -57 18 -104 29 -208 47 -19
4 -385 9 -813 11 l-777 4 2 -1767z m1320 1203 c111 -35 197 -110 248 -213 39
-81 53 -157 46 -263 -13 -217 -131 -365 -314 -396 -34 -5 -377 -9 -534 -6
l-28 1 0 449 0 449 268 -3 c208 -2 277 -6 314 -18z m-39 -1431 c184 -24 298
-114 348 -276 23 -74 33 -260 18 -350 -21 -133 -87 -242 -179 -298 -100 -60
-127 -64 -442 -69 l-288 -4 0 499 c0 274 2 501 4 503 7 7 478 3 539 -5z"/>
<path d="M2653 7185 c0 -1615 1 -1765 16 -1766 21 -1 1768 -1 1804 0 l27 1 0
293 0 293 -554 -1 -553 0 -1 1455 c0 800 -1 1463 -1 1473 -1 16 -25 17 -370
17 l-369 0 1 -1765z"/>
<path d="M4710 7633 c1 -1398 1 -1381 49 -1557 98 -358 371 -597 778 -681 119
-25 191 -30 403 -29 210 0 302 13 460 60 404 123 662 443 707 879 4 33 7 641
7 1350 l0 1290 -370 3 -370 2 0 -1257 c0 -692 -3 -1291 -7 -1331 -9 -101 -24
-155 -63 -239 -41 -87 -101 -150 -177 -188 -71 -34 -107 -40 -237 -39 -131 1
-196 23 -275 95 -85 78 -138 202 -159 374 -3 22 -5 613 -6 1313 l0 1272 -370
0 -370 0 0 -1317z"/>
<path d="M7389 8918 c0 -18 -1 -813 -2 -1765 l-2 -1733 25 -1 c14 0 457 -1
985 -1 l960 -1 0 267 c0 147 -3 270 -8 273 -5 3 -281 5 -613 5 l-604 -1 -1 22
c-4 122 0 999 4 1004 4 3 250 6 546 6 383 0 541 3 543 11 3 9 2 492 -1 522 -1
7 -165 10 -546 10 l-545 -1 -1 30 c-1 36 -1 791 0 821 l1 21 593 0 592 -1 1
272 1 272 -964 0 -963 0 -1 -32z"/>
<path d="M4070 5129 c-450 -40 -798 -189 -974 -418 -78 -101 -148 -250 -171
-366 -30 -150 -33 -201 -30 -415 2 -124 6 -238 9 -255 3 -16 8 -59 12 -95 3
-36 8 -67 9 -70 2 -3 6 -30 10 -60 3 -30 10 -80 15 -110 5 -30 12 -73 15 -95
4 -22 8 -49 10 -60 1 -11 6 -40 9 -65 4 -25 13 -81 21 -125 8 -44 16 -96 19
-115 3 -19 7 -44 10 -55 2 -11 11 -60 20 -108 106 -565 263 -889 522 -1073
111 -79 286 -142 439 -159 298 -32 744 50 985 183 242 133 397 343 455 613 26
124 30 165 30 354 0 239 -3 278 -61 675 -13 92 -87 527 -105 620 -59 301 -157
603 -231 712 -10 14 -18 29 -18 33 0 17 -90 135 -149 195 -121 123 -269 201
-461 243 -80 18 -277 26 -390 16z m159 -574 c170 -93 283 -364 376 -895 33
-187 66 -384 71 -425 3 -27 8 -52 9 -55 2 -3 6 -37 10 -75 4 -39 9 -72 10 -75
2 -3 6 -39 10 -80 4 -41 8 -77 10 -80 7 -12 19 -243 17 -337 -6 -355 -150
-519 -447 -508 -111 4 -157 24 -235 104 -94 97 -188 326 -236 576 -2 11 -8 40
-14 65 -5 25 -12 59 -15 75 -3 17 -12 66 -21 110 -8 44 -22 121 -30 170 -8 50
-17 101 -19 115 -8 43 -63 432 -70 490 -28 257 -23 479 15 596 58 180 195 267
410 261 83 -2 102 -6 149 -32z"/>
<path d="M404 5070 l-29 -5 0 -1760 0 -1760 740 0 c825 0 861 2 1035 51 167
48 306 128 403 234 58 63 147 202 147 230 0 9 4 20 9 26 14 16 45 143 57 234
5 45 5 293 -1 345 -22 205 -68 338 -157 453 -93 121 -243 204 -437 243 l-64
12 101 32 c55 18 122 45 149 60 233 135 353 366 356 685 1 162 -20 317 -53
395 -4 11 -16 40 -25 65 -41 110 -140 232 -247 302 -52 35 -156 86 -188 93 -8
2 -40 10 -70 19 -78 23 -238 43 -355 46 -221 5 -1343 5 -1371 0z m1268 -554
c231 -56 361 -284 311 -549 -26 -144 -97 -243 -212 -300 l-66 -32 -295 -3
-296 -3 0 450 0 451 251 0 c174 -1 267 -5 307 -14z m8 -1440 c14 -3 39 -8 55
-12 52 -10 146 -63 182 -102 77 -82 115 -206 114 -379 -1 -177 -39 -291 -126
-379 -101 -102 -170 -118 -520 -118 l-270 -1 -1 495 c0 272 3 498 8 501 11 7
525 3 558 -5z"/>
<path d="M6478 5072 l-47 -3 -15 -52 c-22 -78 -131 -469 -183 -657 -24 -91
-55 -203 -68 -250 -13 -47 -65 -233 -115 -415 -50 -181 -100 -361 -111 -399
-12 -38 -22 -76 -24 -85 -2 -9 -10 -41 -18 -71 -65 -227 -113 -401 -137 -490
-16 -58 -45 -163 -65 -235 -48 -171 -85 -306 -90 -325 -2 -8 -26 -96 -54 -195
-27 -99 -61 -219 -74 -268 l-25 -87 366 2 366 3 42 165 c122 478 156 605 160
609 3 3 922 5 986 2 14 -1 27 -21 34 -56 1 -5 14 -57 29 -115 15 -58 29 -116
31 -130 3 -14 7 -32 10 -40 3 -8 8 -24 10 -35 2 -11 26 -105 52 -210 l48 -190
391 -3 391 -2 -14 47 c-8 27 -26 89 -39 138 -42 157 -86 318 -101 375 -8 30
-17 62 -19 70 -1 8 -14 56 -28 105 -14 50 -62 225 -107 390 -44 165 -92 341
-106 390 -42 151 -203 745 -219 805 -2 8 -20 76 -40 150 -20 74 -39 142 -40
150 -2 8 -36 132 -75 275 -39 143 -77 283 -85 310 -59 218 -87 321 -90 324 -5
4 -862 7 -927 3z m408 -718 c3 -16 9 -45 14 -64 10 -37 98 -410 105 -445 3
-11 23 -99 46 -195 22 -96 51 -220 64 -275 13 -55 45 -189 70 -298 26 -109 44
-201 41 -205 -8 -8 -687 -9 -692 -1 -2 3 1 21 6 40 5 19 12 46 15 62 13 67 17
87 35 162 18 77 84 373 94 425 7 38 103 471 131 595 14 61 30 133 36 160 18
87 25 95 35 39z"/>
<path d="M7895 5070 l-39 -5 -1 -287 c0 -159 3 -289 8 -289 4 -1 188 -2 410
-3 l402 -1 2 -1415 c1 -778 2 -1441 3 -1472 l0 -58 370 0 370 0 0 1428 c0 785
0 1447 0 1472 l0 45 410 0 410 0 0 295 0 295 -1153 0 c-633 0 -1170 -2 -1192
-5z"/>
</g>
</svg>
